<?xml version="1.0" encoding="utf-8"?>
<!-- Generator: Adobe Illustrator 19.1.0, SVG Export Plug-In . SVG Version: 6.00 Build 0)  -->
<svg version="1.1" id="Layer_1" xmlns="http://www.w3.org/2000/svg" xmlns:xlink="http://www.w3.org/1999/xlink" x="0px" y="0px"
	 viewBox="-164 379 282 36" style="enable-background:new -164 379 282 36;" xml:space="preserve">
<style type="text/css">
	.st0{filter:url(#filter-1);}
	.st1{fill:#115F98;}
	.st2{fill:#FFFFFF;}
</style>
<filter  height="200%" id="filter-1" x="-50%" filterUnits="objectBoundingBox" y="-50%" width="200%">
	<feOffset  dx="0" dy="2" result="shadowOffsetOuter1" in="SourceAlpha"></feOffset>
	<feGaussianBlur  result="shadowBlurOuter1" in="shadowOffsetOuter1" stdDeviation="4"></feGaussianBlur>
	
		<feColorMatrix  type="matrix" values="0 0 0 0 0   0 0 0 0 0   0 0 0 0 0  0 0 0 0.25 0" result="shadowMatrixOuter1" in="shadowBlurOuter1">
		</feColorMatrix>
	<feMerge>
		<feMergeNode  in="shadowMatrixOuter1"></feMergeNode>
		<feMergeNode  in="SourceGraphic"></feMergeNode>
	</feMerge>
</filter>
<title>outlined consent form title</title>
<desc>Created with Sketch.</desc>
<g id="Kiosk-Phase-1">
	<g id="Forms-1" transform="translate(-38.000000, -43.000000)">
		<g id="form" class="st0">
			<g id="form-header_1_">
				<g id="outlined-consent-form-title_1_" transform="translate(46.000000, 49.000000)">
					<path id="Primary-Care-Consent-Copy_1_" class="st1" d="M-135.9,395v-5h3.5c2.8,0,4.3-1.9,4.3-4.2c0-2.3-1.5-4.2-4.3-4.2h-5.9
						V395H-135.9z M-132.7,387.9h-3.2v-4.2h3.2c1.3,0,2.3,0.8,2.3,2.1C-130.4,387.1-131.4,387.9-132.7,387.9L-132.7,387.9z
						 M-124,395v-6.6c0.4-0.7,1.6-1.3,2.5-1.3c0.3,0,0.5,0,0.6,0.1v-2.1c-1.2,0-2.4,0.7-3.1,1.6v-1.4h-2.1v9.7H-124z M-118.1,384.2
						c0.7,0,1.3-0.6,1.3-1.3c0-0.7-0.6-1.3-1.3-1.3s-1.3,0.6-1.3,1.3C-119.4,383.6-118.9,384.2-118.1,384.2L-118.1,384.2z
						 M-117.1,395v-9.7h-2.1v9.7H-117.1z M-100.4,395v-7c0-2-1-2.9-2.8-2.9c-1.5,0-2.7,0.9-3.3,1.8c-0.3-1-1.2-1.8-2.6-1.8
						c-1.5,0-2.7,1-3.2,1.5v-1.3h-2.1v9.7h2.1v-6.8c0.4-0.6,1.3-1.3,2.2-1.3c1.1,0,1.6,0.7,1.6,1.7v6.3h2.1v-6.8
						c0.4-0.6,1.3-1.3,2.2-1.3c1.1,0,1.6,0.7,1.6,1.7v6.3H-100.4z M-89.7,395v-6.4c0-2.6-1.9-3.5-4-3.5c-1.5,0-2.9,0.5-4.1,1.6
						l0.9,1.5c0.8-0.8,1.8-1.2,2.9-1.2c1.3,0,2.3,0.7,2.3,1.8v1.4c-0.7-0.8-1.8-1.2-3.1-1.2c-1.6,0-3.3,0.9-3.3,3.2
						c0,2.1,1.8,3.2,3.3,3.2c1.3,0,2.4-0.5,3.1-1.3v1.1H-89.7z M-94.1,393.8c-1.2,0-2.1-0.7-2.1-1.7c0-1,0.9-1.7,2.1-1.7
						c0.9,0,1.8,0.3,2.3,1v1.5C-92.3,393.5-93.2,393.8-94.1,393.8L-94.1,393.8z M-84.9,395v-6.6c0.4-0.7,1.6-1.3,2.5-1.3
						c0.3,0,0.5,0,0.6,0.1v-2.1c-1.2,0-2.4,0.7-3.1,1.6v-1.4H-87v9.7H-84.9z M-80.4,398.8c0.3,0.1,0.9,0.1,1.2,0.1
						c1.5,0,2.6-0.5,3.3-2.2l4.7-11.4h-2.2l-2.8,7.2l-2.8-7.2h-2.3l4,9.8l-0.5,1.1c-0.3,0.6-0.7,0.8-1.4,0.8c-0.2,0-0.6-0.1-0.8-0.2
						L-80.4,398.8z M-58.3,395.2c2.7,0,4.3-1.4,5.4-3l-2-1c-0.6,1.1-1.9,1.9-3.4,1.9c-2.6,0-4.6-2-4.6-4.8c0-2.8,2-4.8,4.6-4.8
						c1.4,0,2.7,0.8,3.4,1.9l2-1c-1-1.6-2.7-3-5.3-3c-3.9,0-7,2.8-7,6.9C-65.3,392.4-62.3,395.2-58.3,395.2L-58.3,395.2z M-43.1,395
						v-6.4c0-2.6-1.9-3.5-4-3.5c-1.5,0-2.9,0.5-4.1,1.6l0.9,1.5c0.8-0.8,1.8-1.2,2.9-1.2c1.3,0,2.3,0.7,2.3,1.8v1.4
						c-0.7-0.8-1.8-1.2-3.1-1.2c-1.6,0-3.3,0.9-3.3,3.2c0,2.1,1.8,3.2,3.3,3.2c1.3,0,2.4-0.5,3.1-1.3v1.1H-43.1z M-47.5,393.8
						c-1.2,0-2.1-0.7-2.1-1.7c0-1,0.9-1.7,2.1-1.7c0.9,0,1.8,0.3,2.3,1v1.5C-45.7,393.5-46.6,393.8-47.5,393.8L-47.5,393.8z
						 M-38.3,395v-6.6c0.4-0.7,1.6-1.3,2.5-1.3c0.3,0,0.5,0,0.6,0.1v-2.1c-1.2,0-2.4,0.7-3.1,1.6v-1.4h-2.1v9.7H-38.3z M-29,395.2
						c1.5,0,2.9-0.5,3.9-1.4l-1-1.4c-0.7,0.7-1.8,1.1-2.8,1.1c-1.8,0-2.9-1.2-3.1-2.7h7.4v-0.5c0-3-1.8-5.2-4.7-5.2
						c-2.9,0-4.9,2.3-4.9,5.1C-34.1,393.2-31.9,395.2-29,395.2L-29,395.2z M-26.4,389.4h-5.4c0.1-1.2,0.9-2.5,2.7-2.5
						C-27.3,386.8-26.5,388.2-26.4,389.4L-26.4,389.4z M-10.6,395.2c2.1,0,3.7-0.9,4.9-2.4l-1-0.6c-0.8,1.2-2.3,1.9-3.9,1.9
						c-3.1,0-5.6-2.4-5.6-5.9c0-3.5,2.4-5.9,5.6-5.9c1.6,0,3.1,0.8,3.9,1.9l1-0.6c-1.1-1.4-2.7-2.4-4.9-2.4c-3.8,0-6.8,2.8-6.8,6.9
						S-14.4,395.2-10.6,395.2L-10.6,395.2z M0.6,395.2c2.9,0,4.7-2.3,4.7-5.1s-1.8-5.1-4.7-5.1c-2.8,0-4.6,2.2-4.6,5.1
						S-2.2,395.2,0.6,395.2L0.6,395.2z M0.6,394.3c-2.2,0-3.5-2-3.5-4.1c0-2.1,1.3-4.1,3.5-4.1c2.3,0,3.5,2,3.5,4.1
						C4.1,392.3,2.9,394.3,0.6,394.3L0.6,394.3z M15.5,395v-6.8c0-2.2-1.1-3.1-3-3.1c-1.4,0-2.8,0.9-3.5,1.7v-1.5h-1v9.7h1v-7.3
						c0.6-0.9,1.9-1.7,3.1-1.7c1.4,0,2.3,0.6,2.3,2.4v6.5H15.5z M21.6,395.2c2.4,0,3.6-1.3,3.6-2.8c0-3.7-6.1-2.2-6.1-4.7
						c0-1,0.9-1.8,2.4-1.8c1.3,0,2.3,0.5,2.9,1.3l0.6-0.7c-0.7-0.8-1.8-1.4-3.5-1.4c-2.2,0-3.4,1.2-3.4,2.7c0,3.5,6.1,2,6.1,4.6
						c0,1.1-1,2-2.6,2c-1.4,0-2.5-0.6-3.1-1.4l-0.6,0.8C18.9,394.8,20.1,395.2,21.6,395.2L21.6,395.2z M32.2,395.2
						c1.6,0,2.8-0.6,3.8-1.6l-0.5-0.7c-0.8,0.9-1.9,1.3-3.2,1.3c-2.3,0-3.7-1.7-3.8-3.8h8.1v-0.3c0-2.8-1.6-5.1-4.6-5.1
						c-2.7,0-4.6,2.3-4.6,5.1C27.4,393.1,29.4,395.2,32.2,395.2L32.2,395.2z M35.5,389.7h-7c0.1-1.7,1.2-3.7,3.5-3.7
						C34.4,386,35.5,388,35.5,389.7L35.5,389.7z M46.8,395v-6.8c0-2.2-1.1-3.1-3-3.1c-1.4,0-2.8,0.9-3.5,1.7v-1.5h-1v9.7h1v-7.3
						c0.6-0.9,1.9-1.7,3.1-1.7c1.4,0,2.3,0.6,2.3,2.4v6.5H46.8z M52.2,395.2c0.8,0,1.3-0.2,1.6-0.6l-0.4-0.8
						c-0.2,0.2-0.6,0.5-1.1,0.5c-0.7,0-1-0.5-1-1.3v-6.7h2v-0.9h-2v-2.6h-1.1v2.6h-1.6v0.9h1.6v6.9
						C50.3,394.5,50.9,395.2,52.2,395.2L52.2,395.2z M61.9,395v-6.3h7.2v-1h-7.2v-4.9h7.3v-1h-8.5V395H61.9z M75.7,395.2
						c2.9,0,4.7-2.3,4.7-5.1s-1.8-5.1-4.7-5.1c-2.8,0-4.6,2.2-4.6,5.1S72.8,395.2,75.7,395.2L75.7,395.2z M75.7,394.3
						c-2.2,0-3.5-2-3.5-4.1c0-2.1,1.3-4.1,3.5-4.1c2.3,0,3.5,2,3.5,4.1C79.2,392.3,77.9,394.3,75.7,394.3L75.7,394.3z M84,395v-7
						c0.4-0.8,1.8-1.7,2.7-1.7c0.2,0,0.3,0,0.5,0v-1.1c-1.3,0-2.4,0.8-3.3,1.9v-1.7h-1v9.7H84z M101.9,395v-7c0-1.9-0.9-2.9-2.6-2.9
						c-1.4,0-2.7,0.9-3.2,1.8c-0.2-0.9-1-1.8-2.5-1.8c-1.4,0-2.7,1.1-3.1,1.7v-1.5h-1v9.7h1v-7.3c0.6-0.9,1.7-1.7,2.8-1.7
						c1.4,0,1.9,0.8,1.9,2.2v6.8h1.1v-7.3c0.5-0.9,1.7-1.6,2.8-1.6c1.4,0,1.9,0.8,1.9,2.2v6.8H101.9z"/>
					<g id="consent-icon_1_">
						<path id="info-icon_1_" class="st1" d="M-150.7,380.7c0.5,0,0.9,0.2,1.2,0.5s0.5,0.7,0.5,1.2V394c0,0.5-0.2,0.9-0.5,1.2
							s-0.7,0.5-1.2,0.5h-11.6c-0.5,0-0.9-0.2-1.2-0.5s-0.5-0.7-0.5-1.2v-11.6c0-0.5,0.2-0.9,0.5-1.2s0.7-0.5,1.2-0.5h3.5
							c0.2-0.5,0.5-0.9,0.9-1.2s0.9-0.5,1.4-0.5s1,0.2,1.4,0.5s0.7,0.7,0.9,1.2H-150.7z M-156.5,380.7c-0.2,0-0.4,0.1-0.6,0.3
							s-0.2,0.4-0.2,0.6s0.1,0.4,0.2,0.6s0.4,0.3,0.6,0.3s0.4-0.1,0.6-0.3s0.2-0.4,0.2-0.6s-0.1-0.4-0.2-0.6
							S-156.3,380.7-156.5,380.7L-156.5,380.7z"/>
						<path id="Shape_3_" class="st2" d="M-151.1,391.2h-5.6c0.2-0.6,0.3-1.2,0.5-1.8c0.4-0.3,0.8-0.5,1.1-0.6
							c0.3-0.1,0.4-0.1,0.5-0.1c0,0,0,0,0,0c0,0,0.1,0.3-0.5,1.4c-0.1,0.2-0.1,0.4,0.1,0.5c0.3,0.2,0.4,0,0.9-0.6
							c0.3-0.4,0.9-1,1.1-1.2c0.3-0.2,0.5-0.2,0.5-0.2c0.1,0,0.1,0.4-0.1,0.9c-0.1,0.2,0,0.4,0.2,0.4c0.2,0.1,0.4,0,0.4-0.2
							c0.3-0.8,0.3-1.4-0.1-1.7c-0.2-0.1-0.6-0.3-1.3,0.1c-0.2,0.1-0.4,0.3-0.6,0.5c0-0.3,0-0.5-0.2-0.6c-0.4-0.4-1-0.1-1.2-0.1
							c-0.2,0.1-0.4,0.2-0.6,0.3c0.1-0.2,0.1-0.5,0.2-0.7c0-0.1,0-0.2,0.1-0.3c0.6-0.3,1-0.6,1.3-0.9c1-1.3,0.9-2,0.7-2.3
							c-0.1-0.3-0.4-0.4-0.7-0.4c-0.5,0-0.9,0.3-1.2,0.9c-0.2,0.4-0.4,1.3-0.6,2.3c-0.8,0.4-1.7,0.7-2.2,0.7c-0.2,0-0.3,0.1-0.3,0.3
							c0,0.2,0.2,0.3,0.3,0.3c0.5,0,1.3-0.2,2.1-0.5c-0.1,0.4-0.2,0.8-0.3,1.2c-0.9,0.6-1.8,1.5-2.2,2.2h-2.5
							c-0.1,0-0.2,0.1-0.2,0.2c0,0.1,0.1,0.2,0.2,0.2h2.3c-0.3,0.6-0.7,1.6-0.3,2.1c0.1,0.1,0.3,0.3,0.6,0.3c0.1,0,0.2,0,0.2,0
							c0.8-0.1,1.4-1.1,1.8-2.4h5.7c0.1,0,0.2-0.1,0.2-0.2C-150.9,391.3-151,391.2-151.1,391.2L-151.1,391.2z M-155.1,385.1
							c0.2-0.4,0.5-0.5,0.6-0.5c0.1,0,0.1,0,0.1,0.1c0.1,0.2,0,0.7-0.6,1.6c-0.1,0.1-0.3,0.3-0.5,0.4
							C-155.4,386-155.3,385.4-155.1,385.1L-155.1,385.1z M-157.1,390.1c-0.1,0.4-0.2,0.8-0.3,1.1h-0.8
							C-158,390.9-157.6,390.4-157.1,390.1L-157.1,390.1z M-158.8,393.4c-0.1,0-0.2,0-0.2,0c-0.1-0.2,0.1-0.9,0.5-1.7h1
							C-157.9,392.6-158.3,393.3-158.8,393.4L-158.8,393.4z"/>
						<path id="Shape_2_" class="st2" d="M-161.6,390.3c0.1,0,0.1,0,0.2-0.1l0.5-0.5l0.5,0.5c0,0,0.1,0.1,0.2,0.1
							c0.1,0,0.1,0,0.2-0.1c0.1-0.1,0.1-0.2,0-0.3l-0.5-0.5l0.5-0.5c0.1-0.1,0.1-0.2,0-0.3c-0.1-0.1-0.2-0.1-0.3,0l-0.5,0.5
							l-0.5-0.5c-0.1-0.1-0.2-0.1-0.3,0s-0.1,0.2,0,0.3l0.5,0.5l-0.5,0.5c-0.1,0.1-0.1,0.2,0,0.3
							C-161.7,390.3-161.7,390.3-161.6,390.3z"/>
					</g>
				</g>
			</g>
		</g>
	</g>
</g>
</svg>
